<mxfile host="65bd71144e">
    <diagram id="diKFScYm17Do9RVY3w7j" name="Page-1">
        <mxGraphModel dx="2010" dy="1609" grid="1" gridSize="10" guides="1" tooltips="1" connect="1" arrows="1" fold="1" page="1" pageScale="1" pageWidth="850" pageHeight="1100" math="0" shadow="0">
            <root>
                <mxCell id="0"/>
                <mxCell id="1" parent="0"/>
                <mxCell id="83" style="edgeStyle=none;html=1;" edge="1" parent="1" source="82" target="70">
                    <mxGeometry relative="1" as="geometry"/>
                </mxCell>
                <mxCell id="29" style="edgeStyle=none;html=1;" parent="1" source="3" target="14" edge="1">
                    <mxGeometry relative="1" as="geometry"/>
                </mxCell>
                <mxCell id="3" value="" style="verticalLabelPosition=bottom;sketch=0;aspect=fixed;html=1;verticalAlign=top;strokeColor=none;align=center;outlineConnect=0;shape=mxgraph.citrix.laptop_2;" parent="1" vertex="1">
                    <mxGeometry x="320" y="400" width="116" height="86.5" as="geometry"/>
                </mxCell>
                <mxCell id="18" style="edgeStyle=none;html=1;" parent="1" source="4" target="6" edge="1">
                    <mxGeometry relative="1" as="geometry"/>
                </mxCell>
                <mxCell id="4" value="POST&lt;br&gt;/login" style="ellipse;whiteSpace=wrap;html=1;aspect=fixed;" parent="1" vertex="1">
                    <mxGeometry x="270" y="60" width="80" height="80" as="geometry"/>
                </mxCell>
                <mxCell id="6" value="Admin layout" style="swimlane;whiteSpace=wrap;html=1;" parent="1" vertex="1">
                    <mxGeometry x="630" y="-50" width="310" height="280" as="geometry"/>
                </mxCell>
                <mxCell id="31" value="" style="sketch=0;aspect=fixed;html=1;points=[];align=center;image;fontSize=12;image=img/lib/mscae/Chart.svg;" parent="6" vertex="1">
                    <mxGeometry x="30" y="40" width="104.17" height="100" as="geometry"/>
                </mxCell>
                <mxCell id="12" style="edgeStyle=none;html=1;" parent="1" source="14" target="4" edge="1">
                    <mxGeometry relative="1" as="geometry">
                        <mxPoint x="180" y="201.71641791044772" as="sourcePoint"/>
                    </mxGeometry>
                </mxCell>
                <mxCell id="34" style="edgeStyle=none;html=1;" parent="1" source="9" target="14" edge="1">
                    <mxGeometry relative="1" as="geometry"/>
                </mxCell>
                <mxCell id="9" value="GET&lt;br&gt;/login" style="ellipse;whiteSpace=wrap;html=1;aspect=fixed;" parent="1" vertex="1">
                    <mxGeometry x="70" y="200" width="80" height="80" as="geometry"/>
                </mxCell>
                <mxCell id="14" value="Login" style="swimlane;fontStyle=0;childLayout=stackLayout;horizontal=1;startSize=30;horizontalStack=0;resizeParent=1;resizeParentMax=0;resizeLast=0;collapsible=1;marginBottom=0;whiteSpace=wrap;html=1;" parent="1" vertex="1">
                    <mxGeometry x="240" y="230" width="140" height="90" as="geometry"/>
                </mxCell>
                <mxCell id="15" value="Email" style="text;strokeColor=none;fillColor=none;align=left;verticalAlign=middle;spacingLeft=4;spacingRight=4;overflow=hidden;points=[[0,0.5],[1,0.5]];portConstraint=eastwest;rotatable=0;whiteSpace=wrap;html=1;" parent="14" vertex="1">
                    <mxGeometry y="30" width="140" height="30" as="geometry"/>
                </mxCell>
                <mxCell id="17" value="Password" style="text;strokeColor=none;fillColor=none;align=left;verticalAlign=middle;spacingLeft=4;spacingRight=4;overflow=hidden;points=[[0,0.5],[1,0.5]];portConstraint=eastwest;rotatable=0;whiteSpace=wrap;html=1;" parent="14" vertex="1">
                    <mxGeometry y="60" width="140" height="30" as="geometry"/>
                </mxCell>
                <mxCell id="33" style="edgeStyle=none;html=1;" parent="1" source="21" target="31" edge="1">
                    <mxGeometry relative="1" as="geometry"/>
                </mxCell>
                <mxCell id="42" value="reload page" style="edgeLabel;html=1;align=center;verticalAlign=middle;resizable=0;points=[];" parent="33" vertex="1" connectable="0">
                    <mxGeometry x="-0.4117" y="-1" relative="1" as="geometry">
                        <mxPoint as="offset"/>
                    </mxGeometry>
                </mxCell>
                <mxCell id="41" style="edgeStyle=none;html=1;" parent="1" source="36" target="21" edge="1">
                    <mxGeometry relative="1" as="geometry"/>
                </mxCell>
                <mxCell id="45" style="edgeStyle=none;html=1;startArrow=classic;startFill=1;" parent="1" source="36" target="19" edge="1">
                    <mxGeometry relative="1" as="geometry"/>
                </mxCell>
                <mxCell id="36" value="dashboard" style="swimlane;whiteSpace=wrap;html=1;" parent="1" vertex="1">
                    <mxGeometry x="278" y="-450" width="200" height="120" as="geometry"/>
                </mxCell>
                <mxCell id="60" value="html" style="shadow=0;dashed=0;html=1;strokeColor=none;fillColor=#4495D1;labelPosition=center;verticalLabelPosition=bottom;verticalAlign=top;align=center;outlineConnect=0;shape=mxgraph.veeam.2d.file;" parent="36" vertex="1">
                    <mxGeometry x="81.6" y="40.00000000000023" width="36.8" height="50.8" as="geometry"/>
                </mxCell>
                <mxCell id="40" style="edgeStyle=none;html=1;startArrow=none;" parent="1" source="50" target="21" edge="1">
                    <mxGeometry relative="1" as="geometry"/>
                </mxCell>
                <mxCell id="49" style="edgeStyle=none;html=1;startArrow=none;startFill=0;endArrow=classic;endFill=1;" parent="1" source="51" target="19" edge="1">
                    <mxGeometry relative="1" as="geometry"/>
                </mxCell>
                <mxCell id="65" style="edgeStyle=elbowEdgeStyle;html=1;startArrow=classic;startFill=1;endArrow=none;endFill=0;" parent="1" source="38" target="63" edge="1">
                    <mxGeometry relative="1" as="geometry">
                        <mxPoint x="900" y="-390" as="targetPoint"/>
                        <Array as="points">
                            <mxPoint x="520" y="-400"/>
                            <mxPoint x="680" y="-490"/>
                            <mxPoint x="520" y="-290"/>
                        </Array>
                    </mxGeometry>
                </mxCell>
                <mxCell id="38" value="js" style="shadow=0;dashed=0;html=1;strokeColor=none;fillColor=#4495D1;labelPosition=center;verticalLabelPosition=bottom;verticalAlign=top;align=center;outlineConnect=0;shape=mxgraph.veeam.2d.file;" parent="1" vertex="1">
                    <mxGeometry x="501.2" y="-189.99999999999977" width="36.8" height="50.8" as="geometry"/>
                </mxCell>
                <mxCell id="39" style="edgeStyle=none;html=1;startArrow=none;" parent="1" source="53" target="21" edge="1">
                    <mxGeometry relative="1" as="geometry"/>
                </mxCell>
                <mxCell id="46" style="edgeStyle=none;html=1;startArrow=none;startFill=0;" parent="1" source="54" target="19" edge="1">
                    <mxGeometry relative="1" as="geometry"/>
                </mxCell>
                <mxCell id="37" value="css" style="shadow=0;dashed=0;html=1;strokeColor=none;fillColor=#4495D1;labelPosition=center;verticalLabelPosition=bottom;verticalAlign=top;align=center;outlineConnect=0;shape=mxgraph.veeam.2d.file;" parent="1" vertex="1">
                    <mxGeometry x="445.1" y="-280" width="36.8" height="50.8" as="geometry"/>
                </mxCell>
                <mxCell id="20" style="edgeStyle=none;html=1;startArrow=classic;startFill=1;" parent="1" source="19" target="31" edge="1">
                    <mxGeometry relative="1" as="geometry"/>
                </mxCell>
                <mxCell id="43" value="fetch" style="edgeLabel;html=1;align=center;verticalAlign=middle;resizable=0;points=[];" parent="20" vertex="1" connectable="0">
                    <mxGeometry x="0.3149" y="-1" relative="1" as="geometry">
                        <mxPoint as="offset"/>
                    </mxGeometry>
                </mxCell>
                <mxCell id="52" value="" style="edgeStyle=none;html=1;startArrow=none;startFill=0;endArrow=none;endFill=1;" parent="1" source="38" target="51" edge="1">
                    <mxGeometry relative="1" as="geometry">
                        <mxPoint x="536.8" y="-120.51252192365087" as="sourcePoint"/>
                        <mxPoint x="662.1689843408752" y="-160.79767781828718" as="targetPoint"/>
                    </mxGeometry>
                </mxCell>
                <mxCell id="51" value="" style="shape=mxgraph.mockup.markup.redX;fillColor=#ff0000;html=1;shadow=0;strokeColor=none;" parent="1" vertex="1">
                    <mxGeometry x="610" y="-229.2" width="20" height="20" as="geometry"/>
                </mxCell>
                <mxCell id="55" value="" style="edgeStyle=none;html=1;startArrow=none;startFill=0;endArrow=none;" parent="1" source="37" target="54" edge="1">
                    <mxGeometry relative="1" as="geometry">
                        <mxPoint x="476.79999999999995" y="-174.5999999999999" as="sourcePoint"/>
                        <mxPoint x="660.0000000000003" y="-174.5999999999999" as="targetPoint"/>
                    </mxGeometry>
                </mxCell>
                <mxCell id="54" value="" style="sketch=0;html=1;aspect=fixed;strokeColor=none;shadow=0;align=center;verticalAlign=top;fillColor=#2D9C5E;shape=mxgraph.gcp2.check" parent="1" vertex="1">
                    <mxGeometry x="580" y="-300" width="25" height="20" as="geometry"/>
                </mxCell>
                <mxCell id="56" value="" style="edgeStyle=none;html=1;endArrow=none;" parent="1" source="37" target="53" edge="1">
                    <mxGeometry relative="1" as="geometry">
                        <mxPoint x="448.68101128025216" y="-149.20000000000005" as="sourcePoint"/>
                        <mxPoint x="421.06750468613393" y="-77.03373993783202" as="targetPoint"/>
                    </mxGeometry>
                </mxCell>
                <mxCell id="53" value="" style="sketch=0;html=1;aspect=fixed;strokeColor=none;shadow=0;align=center;verticalAlign=top;fillColor=#2D9C5E;shape=mxgraph.gcp2.check" parent="1" vertex="1">
                    <mxGeometry x="320" y="-200" width="25" height="20" as="geometry"/>
                </mxCell>
                <mxCell id="57" value="" style="edgeStyle=none;html=1;endArrow=none;" parent="1" source="38" target="50" edge="1">
                    <mxGeometry relative="1" as="geometry">
                        <mxPoint x="500" y="-101.682007311093" as="sourcePoint"/>
                        <mxPoint x="441.83632786973794" y="-60.8473393035556" as="targetPoint"/>
                    </mxGeometry>
                </mxCell>
                <mxCell id="50" value="" style="sketch=0;html=1;aspect=fixed;strokeColor=none;shadow=0;align=center;verticalAlign=top;fillColor=#2D9C5E;shape=mxgraph.gcp2.check" parent="1" vertex="1">
                    <mxGeometry x="390" y="-130" width="25" height="20" as="geometry"/>
                </mxCell>
                <mxCell id="67" style="edgeStyle=elbowEdgeStyle;html=1;startArrow=none;startFill=0;endArrow=classic;endFill=1;" parent="1" source="63" target="58" edge="1">
                    <mxGeometry relative="1" as="geometry">
                        <Array as="points">
                            <mxPoint x="1070" y="-270"/>
                        </Array>
                    </mxGeometry>
                </mxCell>
                <mxCell id="63" value="Replace Js Script" style="sketch=0;aspect=fixed;pointerEvents=1;shadow=0;dashed=0;html=1;strokeColor=none;labelPosition=center;verticalLabelPosition=bottom;verticalAlign=top;align=center;shape=mxgraph.mscae.enterprise.udf_function;fillColor=#0078D7;" parent="1" vertex="1">
                    <mxGeometry x="720" y="-660" width="47" height="50" as="geometry"/>
                </mxCell>
                <mxCell id="68" value="Main Layout" style="swimlane;whiteSpace=wrap;html=1;" parent="1" vertex="1">
                    <mxGeometry x="-100" y="-300" width="270" height="270" as="geometry"/>
                </mxCell>
                <mxCell id="59" value="Handle GET" style="swimlane;whiteSpace=wrap;html=1;" parent="68" vertex="1">
                    <mxGeometry x="35" y="46" width="200" height="200" as="geometry"/>
                </mxCell>
                <mxCell id="21" value="GET&lt;br&gt;/dashboard" style="ellipse;whiteSpace=wrap;html=1;aspect=fixed;" parent="59" vertex="1">
                    <mxGeometry x="55" y="70" width="90" height="90" as="geometry"/>
                </mxCell>
                <mxCell id="69" value="No Layout" style="swimlane;whiteSpace=wrap;html=1;" parent="1" vertex="1">
                    <mxGeometry x="720" y="-500" width="260" height="280" as="geometry"/>
                </mxCell>
                <mxCell id="58" value="Handle POST" style="swimlane;whiteSpace=wrap;html=1;" parent="69" vertex="1">
                    <mxGeometry x="30" y="50" width="200" height="200" as="geometry"/>
                </mxCell>
                <mxCell id="19" value="POST&lt;br&gt;/dashboard" style="ellipse;whiteSpace=wrap;html=1;aspect=fixed;" parent="58" vertex="1">
                    <mxGeometry x="55" y="55" width="90" height="90" as="geometry"/>
                </mxCell>
                <mxCell id="71" value="routes" style="shadow=0;dashed=0;html=1;strokeColor=none;fillColor=#CCCC00;labelPosition=center;verticalLabelPosition=bottom;verticalAlign=top;align=center;outlineConnect=0;shape=mxgraph.veeam.2d.file;" vertex="1" parent="1">
                    <mxGeometry x="1290" y="-479.9999999999998" width="36.8" height="50.8" as="geometry"/>
                </mxCell>
                <mxCell id="73" style="edgeStyle=none;html=1;" edge="1" parent="1" source="86" target="74">
                    <mxGeometry relative="1" as="geometry">
                        <mxPoint x="1571.6" y="-360.0000000000002" as="targetPoint"/>
                    </mxGeometry>
                </mxCell>
                <mxCell id="85" style="edgeStyle=none;html=1;" edge="1" parent="1" source="74" target="84">
                    <mxGeometry relative="1" as="geometry"/>
                </mxCell>
                <mxCell id="74" value="viewR" style="shadow=0;dashed=0;html=1;strokeColor=none;fillColor=#CCCC00;labelPosition=center;verticalLabelPosition=bottom;verticalAlign=top;align=center;outlineConnect=0;shape=mxgraph.veeam.2d.file;" vertex="1" parent="1">
                    <mxGeometry x="1570" y="-309.9999999999998" width="36.8" height="50.8" as="geometry"/>
                </mxCell>
                <mxCell id="80" style="edgeStyle=none;html=1;" edge="1" parent="1" source="79" target="71">
                    <mxGeometry relative="1" as="geometry"/>
                </mxCell>
                <mxCell id="79" value="" style="verticalLabelPosition=bottom;sketch=0;aspect=fixed;html=1;verticalAlign=top;strokeColor=none;align=center;outlineConnect=0;shape=mxgraph.citrix.laptop_2;fillColor=none;" vertex="1" parent="1">
                    <mxGeometry x="1250.4" y="-720" width="116" height="86.5" as="geometry"/>
                </mxCell>
                <mxCell id="82" value="Xác định đây là ai và thiết lập layout hiển thị" style="text;html=1;strokeColor=none;fillColor=default;align=center;verticalAlign=middle;whiteSpace=wrap;rounded=0;" vertex="1" parent="1">
                    <mxGeometry x="1490" y="-760" width="270" height="40" as="geometry"/>
                </mxCell>
                <mxCell id="84" value="viewC" style="shadow=0;dashed=0;html=1;strokeColor=none;fillColor=#CCCC00;labelPosition=center;verticalLabelPosition=bottom;verticalAlign=top;align=center;outlineConnect=0;shape=mxgraph.veeam.2d.file;" vertex="1" parent="1">
                    <mxGeometry x="1760" y="-309.9999999999998" width="36.8" height="50.8" as="geometry"/>
                </mxCell>
                <mxCell id="88" style="edgeStyle=none;html=1;" edge="1" parent="1" source="71" target="70">
                    <mxGeometry relative="1" as="geometry">
                        <mxPoint x="1531.6" y="-400.0000000000002" as="sourcePoint"/>
                    </mxGeometry>
                </mxCell>
                <mxCell id="91" style="edgeStyle=none;html=1;" edge="1" parent="1" source="90" target="86">
                    <mxGeometry relative="1" as="geometry"/>
                </mxCell>
                <mxCell id="90" value="Xác định quyền truy cập" style="text;html=1;strokeColor=none;fillColor=default;align=center;verticalAlign=middle;whiteSpace=wrap;rounded=0;" vertex="1" parent="1">
                    <mxGeometry x="1620" y="-720" width="270" height="40" as="geometry"/>
                </mxCell>
                <mxCell id="70" value="whoIs" style="shadow=0;dashed=0;html=1;strokeColor=none;fillColor=#CCCC00;labelPosition=center;verticalLabelPosition=bottom;verticalAlign=top;align=center;outlineConnect=0;shape=mxgraph.veeam.2d.file;" vertex="1" parent="1">
                    <mxGeometry x="1440" y="-479.9999999999998" width="36.8" height="50.8" as="geometry"/>
                </mxCell>
                <mxCell id="89" style="edgeStyle=none;html=1;" edge="1" parent="1" source="70" target="86">
                    <mxGeometry relative="1" as="geometry"/>
                </mxCell>
                <mxCell id="86" value="authorize" style="shadow=0;dashed=0;html=1;strokeColor=none;fillColor=#CCCC00;labelPosition=center;verticalLabelPosition=bottom;verticalAlign=top;align=center;outlineConnect=0;shape=mxgraph.veeam.2d.file;" vertex="1" parent="1">
                    <mxGeometry x="1570" y="-479.9999999999998" width="36.8" height="50.8" as="geometry"/>
                </mxCell>
            </root>
        </mxGraphModel>
    </diagram>
</mxfile>